<?xml version="1.0" encoding="UTF-8"?>
<svg width="254px" height="316px" viewBox="0 0 254 316" version="1.1" xmlns="http://www.w3.org/2000/svg" xmlns:xlink="http://www.w3.org/1999/xlink">
    <!-- Generator: Sketch 47.1 (45422) - http://www.bohemiancoding.com/sketch -->
    <title>people</title>
    <desc>Created with Sketch.</desc>
    <defs></defs>
    <g id="Main" stroke="none" stroke-width="1" fill="none" fill-rule="evenodd">
        <g id="Home" transform="translate(-949.000000, -248.000000)">
            <g id="people" transform="translate(949.000000, 248.000000)">
                <g id="Group">
                    <g>
                        <path d="M235.693261,306.795267 C235.302231,305.426955 234.520171,303.569959 234.617929,302.201646 L234.813443,298.389918 L220.24758,298.389918 L220.24758,300.05144 C220.23384,302.759664 218.879254,305.285245 216.630554,306.795267 L208.516684,312.170782 C207.380035,312.803489 206.670799,313.997736 206.659292,315.298354 L235.497746,315.298354 C235.497746,315.298354 236.47532,310.020576 235.693261,306.795267 Z" id="Shape" fill="#091440" fill-rule="nonzero"></path>
                        <path d="M190.822582,303.179012 L191.311369,295.360082 L175.865689,297.217078 L175.670174,298.683128 C175.328575,301.758261 173.399203,304.429131 170.586786,305.720165 L170.489028,305.720165 C161.690856,309.33642 158.855889,311.388889 156.020922,312.366255 C154.805125,312.820028 154.017115,314.001791 154.065773,315.298354 L176.647749,315.298354 L181.340107,313.734568 L181.340107,315.298354 L190.13828,315.298354 L191.506884,307.968107 L190.822582,303.179012 Z" id="Shape" fill="#091440" fill-rule="nonzero"></path>
                        <path d="M162.570673,150.709877 C155.33662,195.668724 167.263032,218.636831 170.586786,238.477366 C173.91054,258.317901 175.181387,292.52572 175.181387,299.074074 L192.093429,299.074074 C196.199243,275.715021 199.914027,265.745885 195.51494,239.161523 C190.822582,211.208848 192.386701,147.973251 192.386701,147.973251 L162.570673,150.709877 Z" id="Shape" fill="#4A90E2" fill-rule="nonzero"></path>
                        <g opacity="0.5" transform="translate(184.761619, 187.654321)" id="Shape" fill-rule="nonzero" fill="#091440">
                            <polygon points="8.30938497 27.2685185 0 0 7.42956774 3.51851852"></polygon>
                        </g>
                        <path d="M176.941021,171.136831 C173.421752,165.37037 208.125654,227.139918 219.172248,299.171811 L236.084291,299.171811 C236.084291,299.171811 239.114772,268.580247 227.872663,231.342593 C222.887032,211.990741 220.540853,199.578189 219.661036,191.466049 C218.390188,180.910494 216.337282,172.211934 211.742681,162.633745 C211.547166,162.145062 203.140023,148.070988 202.944508,147.680041 C192.582216,126.373457 192.288944,148.070988 192.288944,148.070988 L176.941021,171.136831 Z" id="Shape" fill="#4A90E2" fill-rule="nonzero"></path>
                        <path d="M144.974328,98.0298354 C144.974328,98.0298354 134.123249,88.5493827 124.249745,78.9711934 C118.188782,62.9423868 122.783383,40.5606996 122.783383,40.5606996 L130.701738,39.4855967 C130.701738,39.4855967 137.740276,60.3034979 137.447003,68.8065844 L158.562617,78.5802469 C158.562617,78.5802469 168.533879,88.9403292 164.62358,95.9773663 C160.713281,103.014403 144.974328,98.0298354 144.974328,98.0298354 Z" id="Shape" fill="#ED6D47" fill-rule="nonzero"></path>
                        <path d="M151.230806,75.159465 C151.230806,75.159465 144.387784,79.850823 139.10888,94.0226337 C150.155474,102.330247 163.743763,107.998971 171.662118,105.848765 C179.67823,103.69856 182.415439,102.037037 182.904227,96.3683128 C183.393014,90.6995885 177.820838,86.0082305 174.301569,84.2489712 C170.7823,82.4897119 151.230806,75.159465 151.230806,75.159465 Z" id="Shape" fill="#091440" fill-rule="nonzero"></path>
                        <path d="M178.602898,80.8281893 C178.602898,80.8281893 195.123911,74.9639918 201.673661,92.2633745 C211.253893,117.479424 199.327482,133.312757 202.944508,147.680041 C202.944508,147.680041 197.47009,152.664609 183.686287,154.717078 C169.804726,156.769547 162.66843,150.709877 162.66843,150.709877 C162.66843,150.709877 159.246919,134.583333 159.735706,120.997942 C151.524079,115.329218 150.448747,109.171811 154.750075,102.330247 C159.051404,95.4886831 171.368845,81.1213992 178.602898,80.8281893 Z" id="Shape" fill="#091440" fill-rule="nonzero"></path>
                        <path d="M177.429808,62.8446502 C178.495528,63.132351 179.540642,63.4915325 180.558048,63.9197531 L186.716768,79.850823 C181.24235,85.4218107 175.670174,88.9403292 171.075573,90.1131687 L166.872002,73.3024691 L177.429808,62.8446502 Z" id="Shape" fill="#ED6D47" fill-rule="nonzero"></path>
                        <path d="M155.434378,44.7633745 C154.555771,47.8396279 154.623899,51.1090913 155.629893,54.1460905 C157.585042,60.2057613 153.479228,66.8518519 152.697168,74.377572 C152.403896,77.2119342 153.088198,81.0236626 155.141105,82.8806584 C156.861164,82.6841499 158.596003,82.6514241 160.322251,82.7829218 L159.442434,77.0164609 L162.081886,82.8806584 C162.081886,82.8806584 170.880058,79.1666667 175.670174,74.0843621 C180.46029,69.0020576 158.855889,42.3199588 158.855889,42.3199588 L155.434378,44.7633745 Z" id="Shape" fill="#FFC84D" fill-rule="nonzero"></path>
                        <path d="M158.464859,78.4825103 C164.721337,80.5349794 174.888114,75.159465 178.896171,67.4382716 C182.904227,59.7170782 183.979559,39.1923868 174.497084,35.7716049 C165.01461,32.350823 156.11868,39.5833333 153.479228,49.845679 C152.110624,55.31893 149.764444,75.6481481 158.464859,78.4825103 Z" id="Shape" fill="#ED6D47" fill-rule="nonzero"></path>
                        <path d="M152.794926,54.3415638 C151.903208,57.3847322 150.008346,60.0369733 147.418265,61.867284 C147.418265,61.867284 151.915109,65.9722222 156.216437,65.3858025 C160.615524,64.7993827 152.794926,54.3415638 152.794926,54.3415638 Z" id="Shape" fill="#ED6D47" fill-rule="nonzero"></path>
                        <path d="M174.008297,60.3034979 L177.038779,57.0781893 C177.038779,57.0781893 174.399327,52.973251 170.097998,45.936214 C165.894427,38.899177 158.464859,40.462963 155.141105,42.2222222 C153.576986,43.1018519 154.261288,39.7788066 157.878314,37.1399177 C160.322251,35.3806584 163.939278,33.9146091 169.218181,34.0123457 C176.061204,34.1100823 175.670174,33.132716 181.046835,34.7942387 C189.258462,37.4331276 194.048578,44.5679012 188.476403,59.6193416 C187.498828,62.2582305 183.588529,68.5133745 183.588529,68.5133745 C183.588529,68.5133745 172.932965,71.6409465 174.008297,60.3034979 Z" id="Shape" fill="#ED6D47" fill-rule="nonzero"></path>
                        <path d="M180.264775,61.0853909 C180.012829,62.5103856 179.203779,63.776455 178.016353,64.6039095 C176.452234,65.6790123 174.301569,66.558642 173.226237,64.5061728 C171.466603,61.1831276 175.181387,53.3641975 178.602898,55.4166667 C180.558048,56.6872428 180.558048,59.2283951 180.264775,61.0853909 Z" id="Shape" fill="#ED6D47" fill-rule="nonzero"></path>
                        <path d="M155.825408,36.5534979 C155.825408,36.5534979 160.028979,32.0576132 168.729394,33.0349794 C177.429808,34.0123457 180.46029,33.6213992 186.521253,37.9218107 C192.191186,42.026749 193.168761,47.5 191.995672,54.7325103 C190.822582,62.0627572 196.199243,61.9650206 197.274575,65.8744856 C198.056635,68.7088477 198.154392,72.4228395 195.319426,76.9187243 C192.973246,80.7304527 182.904227,86.399177 176.941021,85.617284 L177.625323,78.5802469 L174.594842,87.2788066 C170.638701,88.1343941 166.552545,88.2008215 162.570673,87.4742798 C162.570673,87.4742798 159.735706,80.5349794 162.081886,76.5277778 C165.307882,70.9567901 165.79667,71.5432099 168.827151,67.340535 C171.857633,63.1378601 165.894427,61.2808642 165.210125,56.4917695 C165.068669,54.2978125 165.690336,52.1224403 166.969759,50.3343621 C169.022122,47.4403889 168.368916,43.4349083 165.503397,41.3425926 C165.095691,41.0492086 164.628465,40.8490116 164.134793,40.7561728 C160.908796,39.9742798 155.825408,36.5534979 155.825408,36.5534979 Z" id="Shape" fill="#FFC84D" fill-rule="nonzero"></path>
                        <path d="M166.285457,42.026749 L164.134793,46.8158436 C164.134793,46.8158436 154.652318,45.4475309 150.546504,43.8837449 C150.546504,43.8837449 153.381471,35.6738683 159.735706,34.2078189 C165.992184,32.8395062 166.285457,42.026749 166.285457,42.026749 Z" id="Shape" fill="#FFC84D" fill-rule="nonzero"></path>
                        <path d="M161.886371,155.596708 C161.886371,155.596708 165.210125,159.212963 176.843264,159.212963 C188.476403,159.212963 204.41087,150.221193 204.41087,150.221193 L206.561535,153.837449 C206.561535,153.837449 188.18313,163.220165 177.918596,163.415638 C167.654061,163.611111 161.495341,159.212963 161.495341,159.212963 L161.886371,155.596708 Z" id="Shape" fill="#091440" fill-rule="nonzero"></path>
                        <rect id="Rectangle-path" fill="#3AD7A4" fill-rule="nonzero" transform="translate(164.127116, 159.284117) rotate(-82.995741) translate(-164.127116, -159.284117) " x="160.801812" y="158.795206" width="6.65060832" height="1"></rect>
                        <rect id="Rectangle-path" fill="#3AD7A4" fill-rule="nonzero" transform="translate(185.351827, 160.514813) rotate(-10.091000) translate(-185.351827, -160.514813) " x="184.863039" y="157.142899" width="1" height="6.74382716"></rect>
                        <rect id="Rectangle-path" fill="#3AD7A4" fill-rule="nonzero" transform="translate(202.741368, 154.423132) rotate(-20.301250) translate(-202.741368, -154.423132) " x="202.252519" y="150.904169" width="1" height="7.03792717"></rect>
                        <polygon id="Shape" fill="#091440" fill-rule="nonzero" points="176.061204 158.43107 176.061204 164.588477 169.902483 163.415638 169.902483 157.746914"></polygon>
                        <path d="M68.9190165,315.787037 L0.488787351,315.787037 C0.218837551,315.787037 3.30593158e-17,315.568246 0,315.298354 C-3.30593158e-17,315.028462 0.218837551,314.809671 0.488787351,314.809671 L68.9190165,314.809671 C69.1889663,314.809671 69.4078039,315.028462 69.4078039,315.298354 C69.4078039,315.568246 69.1889663,315.787037 68.9190165,315.787037 Z" id="Shape" fill="#25549F" fill-rule="nonzero"></path>
                        <path d="M194.732881,315.787037 L72.7315578,315.787037 C72.461608,315.787037 72.2427705,315.568246 72.2427705,315.298354 C72.2427705,315.028462 72.461608,314.809671 72.7315578,314.809671 L194.732881,314.809671 C195.00283,314.809671 195.221668,315.028462 195.221668,315.298354 C195.221668,315.568246 195.00283,315.787037 194.732881,315.787037 Z" id="Shape" fill="#25549F" fill-rule="nonzero"></path>
                        <path d="M252.800818,315.787037 L201.869176,315.787037 C201.599226,315.787037 201.380389,315.568246 201.380389,315.298354 C201.380389,315.028462 201.599226,314.809671 201.869176,314.809671 L252.800818,314.809671 C252.932767,314.801583 253.061848,314.850466 253.155325,314.943923 C253.248802,315.03738 253.297695,315.166433 253.289605,315.298354 C253.272492,315.560833 253.063353,315.769927 252.800818,315.787037 L252.800818,315.787037 Z" id="Shape" fill="#25549F" fill-rule="nonzero"></path>
                        <path d="M153.479228,68.904321 C155.094937,69.2835289 156.792886,69.0756612 158.269344,68.3179012 C156.216437,72.1296296 155.043348,71.6409465 153.479228,68.904321 Z" id="Shape" fill="#FFFFFF" fill-rule="nonzero"></path>
                        <path d="M184.175074,95.6841564 C181.437865,85.8127572 192.484459,80.4372428 198.64318,86.7901235 C207.930139,96.2705761 210.471833,120.606996 210.471833,142.402263 C210.184006,154.633 207.493519,166.687798 202.553478,177.880658 L206.561535,185.210905 L210.471833,183.256173 L211.644923,194.495885 L203.726568,202.217078 L195.710455,197.81893 L193.364276,182.962963 L194.537366,137.613169 L184.175074,95.6841564 Z" id="Shape" fill="#ED6D47" fill-rule="nonzero"></path>
                        <path d="M187.889858,121.095679 C187.889858,121.095679 195.808213,124.711934 210.374076,120.606996 C210.667348,106.826132 207.343594,92.4588477 200.891601,87.2788066 C194.439608,82.0987654 191.506884,80.8281893 186.619011,83.7602881 C181.731137,86.6923868 181.144592,93.9248971 181.828895,97.8343621 C182.610954,101.743827 187.889858,121.095679 187.889858,121.095679 Z" id="Shape" fill="#091440" fill-rule="nonzero"></path>
                        <path d="M122.685625,44.9588477 L121.610293,31.9598765 L122.49011,18.5699588 L125.325077,11.7283951 L127.964529,11.0442387 L132.461372,16.712963 L133.927734,27.4639918 L134.416522,25.2160494 C134.760176,23.7552129 135.831112,22.5737431 137.251488,22.0884774 L137.251488,22.0884774 L137.153731,33.2304527 C137.544761,36.7489712 135.785126,38.117284 133.341189,40.7561728 L130.506223,43.8837449 L122.685625,44.9588477 Z" id="Shape" fill="#ED6D47" fill-rule="nonzero"></path>
                        <g opacity="0.5" transform="translate(119.264114, 14.349794)" id="Shape" fill-rule="nonzero" fill="#091440">
                            <polygon points="5.27890339 0.115226337 6.35423556 0.603909465 10.9488367 16.9259259 10.1667769 69.6059671 4.88787351 64.6213992 2.73720917 56.9979424 0.488787351 26.1131687"></polygon>
                        </g>
                        <path d="M74.5889498,48.8683128 C73.5232296,49.1560108 72.478115,49.5151923 71.4607107,49.9434156 L63.5423556,62.8446502 L78.2059762,73.595679 L85.1467566,59.2283951 L74.5889498,48.8683128 Z" id="Shape" fill="#ED6D47" fill-rule="nonzero"></path>
                        <path d="M64.4221729,31.1779835 C64.4221729,30.6893004 64.3244154,19.6450617 68.821259,17.7880658 C83.9736669,11.4351852 93.8471714,14.1718107 97.5619553,20.3292181 C101.276739,26.4866255 99.5171047,29.9074074 100.690194,32.1553498 L101.863284,34.4032922 C101.863284,34.4032922 100.005892,38.2150206 88.568268,37.0421811 C77.130644,35.8693416 64.6176878,31.7644033 64.6176878,31.7644033" id="Shape" fill="#091440" fill-rule="nonzero"></path>
                        <path d="M91.6965071,60.0102881 C85.3422715,61.6718107 75.5665245,55.5144033 72.0472556,47.5977366 C68.5279866,39.68107 68.9190165,19.058642 78.6947635,16.3220165 C88.4705106,13.5853909 96.7798955,21.3065844 98.6372875,31.7644033 C99.7126196,37.3353909 100.592437,57.6646091 91.6965071,60.0102881 Z" id="Shape" fill="#ED6D47" fill-rule="nonzero"></path>
                        <path d="M99.0283173,36.2602881 C99.6757509,39.2931714 101.013835,42.1359944 102.938616,44.5679012 C102.938616,44.5679012 99.1260748,47.9886831 94.8247461,47.1090535 C90.6211749,46.2294239 99.0283173,36.2602881 99.0283173,36.2602881 Z" id="Shape" fill="#ED6D47" fill-rule="nonzero"></path>
                        <path d="M78.3037337,42.5154321 L81.1387003,39.68107 C81.1387003,39.68107 76.9351291,35.3806584 80.1611256,27.8549383 C83.3871221,20.3292181 90.9144473,20.8179012 94.4337162,22.186214 C97.1709254,23.2613169 92.4785668,13.9763374 79.3790658,15.93107 C72.6338004,17.0061728 72.8293153,15.93107 67.8436843,18.3744856 C60.0230867,22.0884774 56.3083029,29.8096708 63.7378706,43.9814815 C65.0087177,46.4248971 69.7988337,52.191358 69.7988337,52.191358 C69.7988337,52.191358 80.8454279,53.5596708 78.3037337,42.5154321 Z" id="Shape" fill="#091440" fill-rule="nonzero"></path>
                        <path d="M72.145013,44.0792181 C72.5972649,45.4725992 73.580791,46.6315078 74.8822222,47.3045267 C76.5440992,48.0864198 78.792521,48.7705761 79.5745808,46.6203704 C80.8454279,43.1018519 76.1530693,35.8693416 73.0248303,38.3127572 C71.2651958,39.7788066 71.5584682,42.3199588 72.145013,44.0792181 Z" id="Shape" fill="#ED6D47" fill-rule="nonzero"></path>
                        <path d="M96.7798955,19.1563786 C99.7126196,22.6748971 102.156556,29.223251 103.036374,30.2006173 L103.818433,31.2757202 C103.818433,31.2757202 101.081224,30.787037 98.53953,26.1934156 C95.9000783,21.6975309 96.7798955,19.1563786 96.7798955,19.1563786 Z" id="Shape" fill="#091440" fill-rule="nonzero"></path>
                        <path d="M68.5279866,185.699588 L72.340528,186.090535 C72.340528,186.090535 76.7396141,218.636831 74.5889498,238.08642 C72.9270728,252.649177 74.2956774,286.856996 74.9799797,303.081276 L52.3002466,303.081276 L62.2715085,246.100823 L68.5279866,185.699588 Z" id="Shape"></path>
                        <path d="M87.2974209,308.652263 L75.468767,311.779835 C75.468767,311.779835 75.2732521,308.359053 75.0777371,302.983539 L88.4705106,302.983539 C88.3002985,304.912146 87.9066315,306.814464 87.2974209,308.652263 L87.2974209,308.652263 Z" id="Shape" fill="#ED6D47" fill-rule="nonzero"></path>
                        <path d="M43.8931041,235.545267 C47.3146156,218.148148 43.1110444,164.295267 43.1110444,164.295267 L91.892022,141.424897 L94.8247461,171.918724 C97.3664403,198.209877 90.5234174,280.797325 88.4705106,302.983539 L73.0248303,302.983539 C72.2427705,286.856996 70.9719234,252.55144 72.6338004,237.988683 C74.7844647,218.539095 71.6562257,196.743827 71.6562257,196.743827 L71.6562257,196.743827 L62.2715085,246.003086 L54.255396,302.983539 L39.8850479,302.983539 C39.7872904,284.315844 38.7119582,261.738683 43.8931041,235.545267 Z" id="Shape" fill="#091440" fill-rule="nonzero"></path>
                        <polygon id="Shape" fill="#ED6D47" fill-rule="nonzero" points="52.3002466 302.983539 51.1271569 311.779835 39.8850479 311.779835 39.8850479 303.081276 52.3002466 303.081276"></polygon>
                        <path d="M88.3727531,303.960905 C88.3727531,303.960905 92.5763243,306.208848 102.058799,308.75 C111.541274,311.291152 112.323333,313.050412 112.323333,315.298354 L74.4911923,315.298354 L75.0777371,303.960905 C75.0777371,303.960905 81.4319727,312.463992 88.3727531,303.960905 Z" id="Shape" fill="#656BF1" fill-rule="nonzero"></path>
                        <path d="M39.7872904,305.426955 L39.7872904,315.298354 L65.2042326,315.298354 C65.3811266,313.94789 64.9517023,312.588336 64.031143,311.584362 C62.5647809,309.825103 54.8419408,304.645062 54.8419408,304.645062 C54.8419408,304.645062 50.6383696,302.983539 47.9011604,305.231481 C45.2617087,307.479424 42.7200145,308.45679 39.7872904,305.426955 Z" id="Shape" fill="#656BF1" fill-rule="nonzero"></path>
                        <path d="M93.3583841,239.356996 C90.230145,239.356996 86.7108761,241.116255 85.244514,243.657407 C86.7108761,246.19856 89.7413577,247.469136 92.8695967,247.469136 L93.3583841,239.356996 Z" id="Shape" fill="#091440" fill-rule="nonzero"></path>
                        <path d="M54.1576385,239.356996 C51.095208,239.377816 48.2709923,241.01254 46.7280708,243.657407 C48.2526582,246.320589 51.0884512,247.962014 54.1576385,247.957819 C57.220069,247.936998 60.0442847,246.302275 61.5872062,243.657407 C60.0752126,240.981732 57.2313923,239.335661 54.1576385,239.356996 L54.1576385,239.356996 Z" id="Shape" fill="#091440" fill-rule="nonzero"></path>
                        <path d="M61.2939338,64.8971193 C61.2939338,64.8971193 49.3675225,70.3703704 44.8706788,79.3621399 C40.3738352,88.3539095 41.6446823,175.730453 41.6446823,175.730453 C41.6446823,175.730453 86.7108761,178.662551 95.9000783,175.730453 C95.9000783,175.730453 91.5009921,89.7222222 83.1916072,73.4979424 L82.116275,71.3477366 L61.2939338,64.8971193 Z" id="Shape" fill="#656BF1" fill-rule="nonzero"></path>
                        <polygon id="Shape" fill="#3439AD" fill-rule="nonzero" points="57.57915 66.8518519 64.6176878 57.3713992 82.0185175 66.8518519 82.0185175 77.505144"></polygon>
                        <g opacity="0.5" transform="translate(79.183551, 67.438272)" id="Shape" fill-rule="nonzero" fill="#091440">
                            <polygon points="0.19551494 7.72119342 1.75963446 0.390946502 2.83496664 7.72119342"></polygon>
                        </g>
                        <g opacity="0.5" transform="translate(55.721758, 82.765432)" id="Shape" fill-rule="nonzero" fill="#3439AD">
                            <path d="M0.391029881,5.19753086 C9.67798955,16.2417695 34.4106295,23.5720165 34.4106295,23.5720165 L32.5532376,10.7685185 L20.5290687,0.212962963 L0.391029881,5.19753086 Z"></path>
                        </g>
                        <path d="M91.9897795,50.9207819 C93.8741076,51.127404 95.7753847,51.127404 97.6597128,50.9207819 C97.6597128,50.9207819 96.1933507,55.9053498 91.9897795,50.9207819 Z" id="Shape" fill="#FFFFFF" fill-rule="nonzero"></path>
                        <path d="M121.610293,17.7880658 C121.478344,17.796154 121.349263,17.7472709 121.255786,17.6538139 C121.162309,17.5603568 121.113416,17.4313032 121.121506,17.2993827 L121.121506,0.488683128 C121.121506,0.218790889 121.340343,4.95784e-17 121.610293,0 C121.880243,-4.95784e-17 122.09908,0.218790889 122.09908,0.488683128 L122.09908,17.2993827 C122.10717,17.4313032 122.058277,17.5603568 121.9648,17.6538139 C121.871323,17.7472709 121.742242,17.796154 121.610293,17.7880658 L121.610293,17.7880658 Z" id="Shape" fill="#2F74FB" fill-rule="nonzero"></path>
                        <path d="M121.610293,56.0030864 C121.478344,56.0111746 121.349263,55.9622915 121.255786,55.8688345 C121.162309,55.7753774 121.113416,55.6463238 121.121506,55.5144033 L121.121506,38.7037037 C121.121506,38.4338115 121.340343,38.2150206 121.610293,38.2150206 C121.880243,38.2150206 122.09908,38.4338115 122.09908,38.7037037 L122.09908,55.5144033 C122.10717,55.6463238 122.058277,55.7753774 121.9648,55.8688345 C121.871323,55.9622915 121.742242,56.0111746 121.610293,56.0030864 L121.610293,56.0030864 Z" id="Shape" fill="#2F74FB" fill-rule="nonzero"></path>
                        <path d="M116.233632,15.5401235 C116.028026,15.5438822 115.838284,15.4300612 115.744845,15.2469136 L113.105393,8.89403292 C113.007636,8.60082305 113.105393,8.40534979 113.398665,8.20987654 C113.691938,8.11213992 113.887453,8.20987654 114.082968,8.50308642 L116.722419,14.8559671 C116.820177,15.149177 116.722419,15.3446502 116.429147,15.5401235 L116.233632,15.5401235 Z" id="Shape" fill="#2F74FB" fill-rule="nonzero"></path>
                        <path d="M129.626406,47.7932099 C129.420799,47.7969686 129.231057,47.6831476 129.137618,47.5 L126.498166,41.1471193 C126.400409,40.8539095 126.498166,40.6584362 126.791439,40.462963 C127.084711,40.3652263 127.280226,40.462963 127.475741,40.7561728 L130.115193,47.1090535 C130.21295,47.4022634 130.115193,47.5977366 129.82192,47.7932099 L129.626406,47.7932099 Z" id="Shape" fill="#2F74FB" fill-rule="nonzero"></path>
                        <path d="M129.137618,20.9156379 C128.999819,20.930263 128.861292,20.8956384 128.746588,20.8179012 C128.652863,20.7287878 128.599805,20.605136 128.599805,20.475823 C128.599805,20.3465101 128.652863,20.2228583 128.746588,20.1337449 L135.785126,13.0967078 C135.974638,12.9110261 136.278364,12.9125597 136.46599,13.1001459 C136.653616,13.287732 136.65515,13.5913928 136.469428,13.7808642 L129.430891,20.8179012 C129.430891,20.9156379 129.333133,20.9156379 129.137618,20.9156379 Z M139.011123,11.1419753 C138.873324,11.1566004 138.734796,11.1219759 138.620093,11.0442387 C138.526368,10.9551252 138.47331,10.8314735 138.47331,10.7021605 C138.47331,10.5728475 138.526368,10.4491958 138.620093,10.3600823 L140.673,8.30761317 C140.862511,8.12193142 141.166237,8.1234651 141.353863,8.31105123 C141.541489,8.49863736 141.543023,8.80229818 141.357302,8.99176955 L139.304395,11.0442387 C139.206638,11.0442387 139.10888,11.1419753 139.011123,11.1419753 L139.011123,11.1419753 Z" id="Shape" fill="#2F74FB" fill-rule="nonzero"></path>
                        <path d="M102.156556,47.9886831 C102.018758,48.0033083 101.88023,47.9686837 101.765527,47.8909465 C101.671801,47.801833 101.618743,47.6781813 101.618743,47.5488683 C101.618743,47.4195553 101.671801,47.2959036 101.765527,47.2067901 L103.818433,45.154321 C103.940253,45.030042 104.119443,44.9807429 104.287709,45.0252134 C104.455974,45.0696838 104.587391,45.2010724 104.631871,45.3693021 C104.676351,45.5375319 104.627041,45.7166841 104.502736,45.8384774 L102.449829,47.8909465 C102.352071,47.8909465 102.254314,47.9886831 102.156556,47.9886831 Z M106.946672,43.1018519 C106.808874,43.116477 106.670346,43.0818524 106.555643,43.0041152 C106.461918,42.9150018 106.40886,42.79135 106.40886,42.662037 C106.40886,42.5327241 106.461918,42.4090723 106.555643,42.3199588 L115.744845,33.132716 C115.866664,33.0084371 116.045854,32.959138 116.21412,33.0036084 C116.382386,33.0480789 116.513802,33.1794675 116.558282,33.3476972 C116.602762,33.515927 116.553453,33.6950791 116.429147,33.8168724 L107.239945,43.0041152 C107.239945,43.1018519 107.142187,43.1018519 106.946672,43.1018519 Z" id="Shape" fill="#2F74FB" fill-rule="nonzero"></path>
                        <path d="M114.082968,20.9156379 C113.945169,20.930263 113.806641,20.8956384 113.691938,20.8179012 L106.6534,13.7808642 C106.529095,13.6590709 106.479785,13.4799187 106.524265,13.311689 C106.568745,13.1434592 106.700161,13.0120707 106.868427,12.9676002 C107.036693,12.9231297 107.215883,12.9724288 107.337702,13.0967078 L114.37624,20.1337449 C114.469965,20.2228583 114.523023,20.3465101 114.523023,20.475823 C114.523023,20.605136 114.469965,20.7287878 114.37624,20.8179012 C114.298255,20.8930765 114.190471,20.9289969 114.082968,20.9156379 L114.082968,20.9156379 Z M104.209463,11.1419753 C104.071665,11.1566004 103.933137,11.1219759 103.818433,11.0442387 L101.765527,8.99176955 C101.641221,8.86997627 101.591911,8.69082407 101.636391,8.52259432 C101.680871,8.35436458 101.812288,8.22297601 101.980554,8.17850555 C102.148819,8.13403509 102.32801,8.18333418 102.449829,8.30761317 L104.502736,10.3600823 C104.596461,10.4491958 104.649519,10.5728475 104.649519,10.7021605 C104.649519,10.8314735 104.596461,10.9551252 104.502736,11.0442387 C104.410737,11.0920561 104.311759,11.1250416 104.209463,11.1419753 L104.209463,11.1419753 Z" id="Shape" fill="#2F74FB" fill-rule="nonzero"></path>
                        <path d="M141.06403,47.9886831 C140.926231,48.0033083 140.787703,47.9686837 140.673,47.8909465 L138.620093,45.8384774 C138.495787,45.7166841 138.446478,45.5375319 138.490958,45.3693021 C138.535438,45.2010724 138.666854,45.0696838 138.83512,45.0252134 C139.003385,44.9807429 139.182576,45.030042 139.304395,45.154321 L141.357302,47.2067901 C141.451027,47.2959036 141.504085,47.4195553 141.504085,47.5488683 C141.504085,47.6781813 141.451027,47.801833 141.357302,47.8909465 C141.265303,47.9387639 141.166325,47.9717494 141.06403,47.9886831 L141.06403,47.9886831 Z M136.273913,43.1018519 C136.136115,43.116477 135.997587,43.0818524 135.882884,43.0041152 L128.844346,35.9670782 C128.658624,35.7776068 128.660158,35.473946 128.847785,35.2863599 C129.035411,35.0987737 129.339136,35.0972401 129.528648,35.2829218 L136.567186,42.3199588 C136.660911,42.4090723 136.713969,42.5327241 136.713969,42.662037 C136.713969,42.79135 136.660911,42.9150018 136.567186,43.0041152 C136.489201,43.0792905 136.381416,43.1152109 136.273913,43.1018519 Z" id="Shape" fill="#2F74FB" fill-rule="nonzero"></path>
                        <path d="M141.06403,47.9886831 C140.926231,48.0033083 140.787703,47.9686837 140.673,47.8909465 L138.620093,45.8384774 C138.495787,45.7166841 138.446478,45.5375319 138.490958,45.3693021 C138.535438,45.2010724 138.666854,45.0696838 138.83512,45.0252134 C139.003385,44.9807429 139.182576,45.030042 139.304395,45.154321 L141.357302,47.2067901 C141.451027,47.2959036 141.504085,47.4195553 141.504085,47.5488683 C141.504085,47.6781813 141.451027,47.801833 141.357302,47.8909465 C141.265303,47.9387639 141.166325,47.9717494 141.06403,47.9886831 L141.06403,47.9886831 Z M136.273913,43.1018519 C136.136115,43.116477 135.997587,43.0818524 135.882884,43.0041152 L128.844346,35.9670782 C128.658624,35.7776068 128.660158,35.473946 128.847785,35.2863599 C129.035411,35.0987737 129.339136,35.0972401 129.528648,35.2829218 L136.567186,42.3199588 C136.660911,42.4090723 136.713969,42.5327241 136.713969,42.662037 C136.713969,42.79135 136.660911,42.9150018 136.567186,43.0041152 C136.489201,43.0792905 136.381416,43.1152109 136.273913,43.1018519 Z" id="Shape" fill="#2F74FB" fill-rule="nonzero"></path>
                        <path d="M126.986954,15.5401235 L126.791439,15.5401235 C126.657937,15.4932133 126.550219,15.3924951 126.494477,15.2624569 C126.438734,15.1324188 126.440073,14.9849724 126.498166,14.8559671 L129.137618,8.50308642 C129.253479,8.24568271 129.551675,8.1253197 129.813809,8.23015097 C130.075943,8.33498224 130.208852,8.62775048 130.115193,8.89403292 L127.475741,15.2469136 C127.382302,15.4300612 127.19256,15.5438822 126.986954,15.5401235 L126.986954,15.5401235 Z" id="Shape" fill="#2F74FB" fill-rule="nonzero"></path>
                        <path d="M113.59418,47.7932099 L113.398665,47.7932099 C113.265163,47.7462997 113.157446,47.6455815 113.101703,47.5155434 C113.045961,47.3855052 113.047299,47.2380588 113.105393,47.1090535 L115.744845,40.7561728 C115.860705,40.4987691 116.158901,40.3784061 116.421036,40.4832374 C116.68317,40.5880687 116.816078,40.8808369 116.722419,41.1471193 L114.082968,47.5 C113.989529,47.6831476 113.799787,47.7969686 113.59418,47.7932099 L113.59418,47.7932099 Z" id="Shape" fill="#2F74FB" fill-rule="nonzero"></path>
                        <path d="M108.608549,23.1635802 L108.413034,23.1635802 L102.058799,20.5246914 C101.876187,20.460489 101.743489,20.301348 101.713182,20.1102018 C101.682875,19.9190557 101.759839,19.7266859 101.913638,19.6091667 C102.067438,19.4916476 102.273305,19.4679038 102.449829,19.5473251 L108.804064,22.186214 C108.937567,22.2331241 109.045284,22.3338423 109.101027,22.4638805 C109.156769,22.5939187 109.155431,22.7413651 109.097337,22.8703704 C108.974084,23.0226698 108.800961,23.1265209 108.608549,23.1635802 L108.608549,23.1635802 Z" id="Shape" fill="#2F74FB" fill-rule="nonzero"></path>
                        <path d="M140.868515,36.4557613 L140.673,36.4557613 L134.318764,33.8168724 C134.136152,33.7526701 134.003454,33.593529 133.973147,33.4023829 C133.94284,33.2112368 134.019804,33.018867 134.173604,32.9013478 C134.327403,32.7838286 134.533271,32.7600849 134.709794,32.8395062 L141.06403,35.4783951 C141.197532,35.5253052 141.305249,35.6260234 141.360992,35.7560616 C141.416734,35.8860998 141.415396,36.0335461 141.357302,36.1625514 C141.263863,36.3456991 141.074121,36.4595201 140.868515,36.4557613 L140.868515,36.4557613 Z" id="Shape" fill="#2F74FB" fill-rule="nonzero"></path>
                        <path d="M102.352071,36.4557613 C102.146465,36.4595201 101.956723,36.3456991 101.863284,36.1625514 C101.765527,35.8693416 101.863284,35.6738683 102.156556,35.4783951 L108.510792,32.8395062 C108.804064,32.7417695 108.999579,32.8395062 109.195094,33.132716 C109.292852,33.4259259 109.195094,33.6213992 108.901822,33.8168724 L102.547586,36.4557613 L102.352071,36.4557613 Z" id="Shape" fill="#2F74FB" fill-rule="nonzero"></path>
                        <path d="M134.612037,23.1635802 C134.40643,23.167339 134.216688,23.053518 134.123249,22.8703704 C134.025492,22.5771605 134.123249,22.3816872 134.416522,22.186214 L140.770757,19.5473251 C141.06403,19.4495885 141.259544,19.5473251 141.455059,19.840535 C141.552817,20.1337449 141.455059,20.3292181 141.161787,20.5246914 L134.807551,23.1635802 L134.612037,23.1635802 Z" id="Shape" fill="#2F74FB" fill-rule="nonzero"></path>
                        <path d="M117.211207,23.6522634 L118.579811,11.9238683 L120.534961,10.9465021 L125.618349,14.1718107 L127.182469,30.8847737 L125.618349,43.1995885 L115.256057,45.0565844 L112.323333,28.441358 L114.571755,13.9763374 L116.820177,12.9012346 C117.308964,14.4650206 117.211207,23.6522634 117.211207,23.6522634" id="Shape" fill="#ED6D47" fill-rule="nonzero"></path>
                        <path d="M115.256057,45.0565844 L111.150244,33.9146091 L110.074911,21.5020576 L110.074911,21.5020576 C111.810451,22.0034953 113.195138,23.3150245 113.789695,25.0205761 L115.647087,30.4938272 L115.256057,45.0565844 Z" id="Shape" fill="#ED6D47" fill-rule="nonzero"></path>
                        <path d="M116.038117,41.9290123 L103.134131,75.2572016 C103.134131,75.2572016 61.2939338,71.25 58.4589672,75.5504115 C55.6240006,79.850823 54.8419408,86.8878601 61.0984189,88.744856 C74.7844647,92.8497942 116.429147,91.6769547 116.429147,91.6769547 C116.429147,91.6769547 119.948416,80.2417695 121.903565,71.3477366 C123.806887,62.034933 125.015887,52.593679 125.520592,43.1018519 L116.038117,41.9290123 Z" id="Shape" fill="#ED6D47" fill-rule="nonzero"></path>
                        <path d="M92.4785668,74.377572 C92.4785668,74.377572 62.2715085,71.8364198 56.4060603,72.5205761 C50.6383696,73.2047325 45.1639512,77.7983539 45.5549811,82.9783951 C45.946011,88.1584362 49.3675225,93.1430041 57.57915,94.7067901 C65.7907775,96.2705761 97.5619553,93.1430041 97.5619553,93.1430041 L92.4785668,74.377572 Z" id="Shape" fill="#0F1489" fill-rule="nonzero"></path>
                        <path d="M103.134131,75.2572016 C102.840859,77.7983539 102.156556,85.9104938 105.08928,92.2633745 C105.184924,92.5097908 105.163038,92.7863524 105.029827,93.0146659 C104.896615,93.2429795 104.666599,93.3981576 104.404978,93.436214 L93.6516565,94.9022634 C93.441098,94.9500773 93.2201906,94.900955 93.0497526,94.7684204 C92.8793146,94.6358858 92.7773164,94.4339128 92.7718392,94.218107 C92.2830519,90.9927984 90.42566,78.3847737 91.6965071,73.7911523 C91.8193396,73.4161531 92.1828542,73.1738618 92.5763243,73.2047325 L102.352071,74.377572 C102.938616,74.4753086 103.231889,74.8662551 103.134131,75.2572016 Z" id="Shape" fill="#3439AD" fill-rule="nonzero"></path>
                    </g>
                </g>
            </g>
        </g>
    </g>
</svg>